<svg width="300" height="301" viewBox="0 0 300 301" fill="none" xmlns="http://www.w3.org/2000/svg">
<path d="M74.6642 7.77298V7.77298C49.1271 7.77298 28.4252 28.4749 28.4252 54.012V248.387C28.4252 273.924 49.1271 294.626 74.6642 294.626V294.626V7.77298Z" fill="#5358E4"/>
<path d="M54.1134 80.5059C54.1134 39.6368 87.2443 6.50583 128.113 6.50583H172.131C191.948 6.50583 210.937 14.4542 224.845 28.5708L230.507 34.3176L250.776 53.0124C265.965 67.0221 274.605 86.7445 274.605 107.408V220.626C274.605 261.495 241.474 294.626 200.605 294.626H128.113C87.2443 294.626 54.1134 261.495 54.1134 220.626V80.5059Z" fill="#D9D9D9"/>
<path d="M201.821 12.0544L231.791 42.4523L266.042 73.7064L216.806 75.8471L201.821 60.4341V12.0544Z" fill="#5358E4"/>
<path d="M123.61 2.98246C105.457 3.32497 92.3273 4.12417 89.9297 4.92336C87.7605 5.72255 83.422 6.2934 80.2252 6.2934C63.5563 6.2934 52.0251 10.8602 41.2931 21.5922C33.0728 29.8125 28.3919 38.6036 26.1084 50.249C25.0809 55.3867 24.8526 82.2167 25.0809 155.286C25.4234 250.276 25.5376 253.701 27.7068 259.752C34.5571 278.476 49.1709 293.09 65.3831 297.314C68.3515 297.999 97.6933 298.57 146.444 298.684C222.824 298.912 222.938 298.912 231.501 296.286C236.182 294.916 242.461 292.519 245.43 291.034C252.965 287.267 263.355 276.535 267.693 268.2C275 254.5 274.772 256.555 274.886 163.164L275 78.2208L271.917 72.5122C266.666 62.8078 215.86 12.3444 204.899 5.95089C200.333 3.2108 199.191 3.09663 176.699 2.75412C163.798 2.52578 139.936 2.63995 123.61 2.98246ZM196.337 39.0603L196.679 63.9495L199.876 68.7446C203.301 73.6539 209.238 78.3349 214.718 80.39C216.545 81.1892 227.391 81.6459 240.064 81.6459H262.327V161.908C262.327 215.339 261.985 244.339 261.071 248.906C258.559 262.949 248.284 276.306 235.497 282.129C226.478 286.353 218.029 286.81 159.574 286.353C102.488 286.011 98.0358 285.554 88.2172 279.846C76.4576 272.881 68.4657 260.665 65.9539 246.28C65.1547 240.914 64.8122 208.946 65.0406 141.585L65.3831 44.5405L68.1232 39.4028C74.7451 26.8441 81.2528 20.6789 91.9848 16.4546C96.8941 14.6278 101.689 14.3995 146.672 14.2853H195.994L196.337 39.0603ZM64.5839 21.9348C61.0446 26.0449 55.7928 36.7769 54.0802 43.6271C52.3676 49.9065 52.2535 62.3511 52.4818 150.947L52.8243 251.189L55.7928 259.409C58.7612 267.401 62.643 273.452 69.8357 281.216C73.9459 285.668 72.4616 286.011 63.2138 282.472C55.6786 279.732 48.6 272.311 43.0057 261.236C39.4664 254.386 39.238 253.13 38.3247 235.548C37.7538 225.272 37.5255 179.947 37.6397 134.735L37.9822 52.5324L40.7223 44.6547C44.0332 35.521 51.5685 26.5016 59.2179 22.6198C65.2689 19.5372 66.8673 19.3088 64.5839 21.9348ZM234.355 49.1073L254.906 69.3155L242.461 68.6304C235.611 68.2879 227.505 67.9454 224.422 67.9454C219.742 67.9454 218.257 67.3746 214.604 64.0636L210.38 60.1818L210.037 43.3988C209.695 27.5291 209.695 26.7299 211.75 27.8716C212.891 28.4425 223.052 38.0328 234.355 49.1073Z" fill="#171717"/>
<path d="M102.831 27.6433C101.918 27.8716 101.347 30.155 101.347 32.6668C101.347 36.3202 101.004 37.1194 99.0634 37.1194C97.9217 37.1194 94.8391 39.0603 92.2132 41.4579C88.2172 45.3397 87.6463 46.4814 87.6463 51.0482C87.6463 60.0677 94.1541 66.6896 104.544 68.5163C111.051 69.5438 114.933 72.7406 113.221 75.5949C110.252 80.39 103.63 80.39 96.5516 75.4807L92.4415 72.7406L88.6739 76.6224L84.9062 80.5042L87.6463 83.3585C89.1306 84.9568 92.784 87.1261 95.8666 88.1536C100.776 89.9803 101.233 90.5512 101.575 94.0905C101.803 97.2872 102.488 98.2006 104.772 98.7715C110.024 100.027 111.622 98.8856 111.622 94.0905C111.622 90.437 112.079 89.4095 114.248 88.6103C118.244 87.0119 123.953 79.9333 124.866 75.3665C126.35 67.1462 121.441 61.0952 110.595 58.1268C101.004 55.5009 99.0634 54.4733 99.0634 52.0758C99.0634 49.3357 103.174 46.2531 106.827 46.2531C108.425 46.2531 111.622 47.3948 114.02 48.7648L118.472 51.2766L122.012 47.8514L125.551 44.5405L121.327 40.8871C119.043 38.832 115.961 37.1194 114.591 36.8911C112.764 36.6627 112.079 35.6352 111.85 32.4384C111.622 29.2417 110.937 28.1 108.996 27.5291C106.142 26.7299 104.772 26.8441 102.831 27.6433Z" fill="#5358E4"/>
<path d="M164.026 53.9024L153.979 63.7211L149.298 59.0401C144.047 53.5599 140.165 52.8749 137.425 56.7567C136.397 58.1267 135.598 59.7251 135.598 60.296C135.598 62.4652 150.897 77.079 153.066 77.079C154.436 77.079 159.574 73.0831 165.168 67.6029C170.648 62.4652 176.699 56.8709 178.754 55.0441C182.75 51.619 183.435 48.5364 180.581 45.7963C177.27 42.3712 174.302 43.7413 164.026 53.9024Z" fill="#1E1E1E"/>
<path d="M86.5047 113.614C83.6504 116.468 83.6504 118.409 86.5047 121.035C88.5598 122.861 93.4691 122.976 165.511 122.861C207.754 122.861 242.69 122.747 243.032 122.747C243.375 122.747 244.288 121.491 244.973 119.893C246.572 116.468 244.973 112.929 241.206 112.015C239.95 111.673 205.128 111.33 163.912 111.33C90.2723 111.33 88.7881 111.33 86.5047 113.614Z" fill="#1E1E1E"/>
<path d="M86.5046 138.731C83.8787 141.357 83.7645 142.499 85.3629 145.696C86.5046 147.751 88.6739 147.865 164.94 147.865C238.123 147.865 243.375 147.751 244.745 145.81C246.914 143.07 246.686 141.357 244.06 138.731C241.776 136.448 240.292 136.448 165.282 136.448C90.2723 136.448 88.788 136.448 86.5046 138.731Z" fill="#1E1E1E"/>
<path d="M86.0479 164.077C83.7645 167.274 83.7645 170.014 85.7054 171.726C87.3038 172.982 236.296 174.695 241.32 173.439C242.69 173.096 244.402 171.498 245.087 170.014C246.115 167.616 246.001 166.817 243.489 164.419L240.749 161.565H164.255H87.7605L86.0479 164.077Z" fill="#1E1E1E"/>
<path d="M88.452 212.402C87.1937 214.516 87.1937 215.953 88.452 217.898C89.3579 219.251 91.522 219.335 123.279 219.251C141.901 219.251 157.301 219.166 157.452 219.166C157.603 219.166 158.006 218.236 158.308 217.052C159.012 214.516 158.308 211.895 156.647 211.218C156.093 210.965 140.743 210.711 122.575 210.711C90.1128 210.711 89.4585 210.711 88.452 212.402Z" fill="#827BEB"/>
<path d="M88.4698 228.693C87.3171 230.662 87.267 231.518 87.9686 233.916C88.4698 235.457 89.422 235.543 122.901 235.543C155.026 235.543 157.332 235.457 157.933 234.002C158.885 231.947 158.785 230.662 157.633 228.693C156.63 226.98 155.979 226.98 123.051 226.98C90.1237 226.98 89.4721 226.98 88.4698 228.693Z" fill="#827BEB"/>
<path d="M88.2824 244.996C87.2769 247.219 87.2769 249.125 88.1316 250.316C88.8354 251.189 154.441 252.38 156.653 251.507C157.256 251.269 158.01 250.157 158.312 249.125C158.764 247.458 158.714 246.902 157.608 245.234L156.401 243.249H122.719H89.0365L88.2824 244.996Z" fill="#827BEB"/>
<path d="M208.781 192.848C206.612 195.36 206.726 266.374 208.781 268.315C211.75 271.169 214.946 271.283 217.686 268.771L220.198 266.374L219.513 229.725C218.942 203.694 218.371 192.734 217.458 192.163C215.175 190.679 210.151 191.135 208.781 192.848Z" fill="#1E1E1E"/>
<path d="M186.974 210.544C185.719 212.942 185.49 220.02 186.518 224.016C187.089 226.071 187.66 226.3 190.742 225.386C193.026 224.816 194.738 224.816 195.423 225.501C196.222 226.3 195.651 226.642 193.825 226.642C189.486 226.642 181.494 229.382 179.439 231.437C176.927 233.949 178.183 236.689 182.636 238.516L186.404 240.114L185.947 248.563C185.604 258.61 186.632 260.094 194.053 259.523L198.962 259.181L199.305 235.319C199.533 218.765 199.191 211.001 198.277 209.973C196.222 207.462 188.459 207.918 186.974 210.544Z" fill="#1E1E1E"/>
<path d="M227.163 223.446L227.505 238.63L232.643 238.973C241.32 239.544 241.891 238.516 240.863 222.646L240.064 208.946L233.442 208.603L226.82 208.261L227.163 223.446Z" fill="#1E1E1E"/>
<path d="M227.619 244.339C226.363 248.906 226.934 256.212 228.761 257.925C231.044 260.323 237.666 260.208 240.064 257.925C241.434 256.555 241.776 254.386 241.548 249.591L241.206 243.197L234.698 242.626C228.875 242.055 228.076 242.284 227.619 244.339Z" fill="#1E1E1E"/>
</svg>
